<?xml version="1.0" encoding="UTF-8" standalone="no"?>
<!DOCTYPE svg PUBLIC "-//W3C//DTD SVG 20010904//EN"
              "http://www.w3.org/TR/2001/REC-SVG-20010904/DTD/svg10.dtd">

<svg xmlns="http://www.w3.org/2000/svg"
     width="0.694444in" height="0.486111in"
     viewBox="0 0 50 35">
  <path id="R"
        fill="#fff" stroke="0" stroke-width="0"
        d="M 48.69,13.75
           C 48.69,13.75 44.81,17.10 44.76,17.12
             44.76,17.12 44.81,24.73 44.81,24.73
             44.81,24.73 45.61,25.70 45.61,25.70
             45.61,25.70 43.88,25.71 43.21,25.16
             43.22,25.20 41.25,26.95 41.44,27.85
             41.44,27.85 44.25,27.61 43.80,28.39
             43.80,28.39 45.88,26.29 45.88,26.29
             45.88,26.29 46.97,26.75 47.04,27.55
             47.04,27.55 49.21,25.82 49.54,24.49
             49.54,24.49 49.17,23.30 48.80,22.87
             48.80,22.87 48.82,17.74 48.82,17.74
             48.82,17.74 48.66,16.73 49.65,17.13
             49.54,16.63 48.64,16.22 48.64,16.22
             48.65,16.22 48.69,13.75 48.69,13.75 Z
           M 37.06,13.08
           C 37.06,13.08 38.21,10.46 43.90,5.53
             43.90,5.53 47.87,7.56 48.20,8.82
             48.20,8.82 50.90,12.68 44.63,15.05
             44.64,15.06 40.58,17.82 43.20,17.47
             43.20,17.47 42.88,18.29 42.33,18.43
             42.33,18.43 40.93,18.47 41.68,16.02
             42.75,14.84 44.38,14.42 44.63,14.11
             46.89,9.81 42.30,8.60 42.24,8.61
             42.24,8.61 41.42,8.82 40.90,9.65
             40.88,9.61 40.88,16.12 40.88,16.12
             40.88,16.12 40.43,28.34 40.43,28.34
             40.43,28.34 40.40,30.59 43.12,30.33
             43.12,30.33 40.99,33.74 39.81,33.92
             39.81,33.95 37.61,32.68 36.95,29.98
             36.95,29.98 36.82,18.01 36.82,18.01
             36.82,18.01 36.80,16.83 35.91,18.12
             35.97,16.67 36.79,15.67 36.79,15.67
             36.79,15.67 37.06,13.08 37.06,13.08 Z
           M 18.93,4.99
           C 18.93,4.99 21.28,2.83 21.28,2.83
             21.28,2.83 19.20,0.46 19.20,0.46
             19.20,0.46 16.84,2.99 16.84,2.99
             16.84,2.99 18.93,4.99 18.93,4.99 Z
           M 15.75,9.34
           C 15.75,9.34 18.60,6.95 18.90,5.49
             18.90,5.49 21.14,7.23 20.88,8.32
             20.88,8.32 20.88,17.57 20.88,17.57
             20.88,17.57 22.35,19.95 24.38,17.94
             24.38,17.94 25.01,18.27 25.01,18.26
             25.01,18.28 24.63,18.99 24.63,18.98
             24.63,18.98 22.30,20.60 21.03,18.83
             21.03,18.83 21.07,22.25 21.07,22.25
             21.07,22.25 22.32,28.31 25.29,24.36
             25.29,24.36 25.37,17.46 25.37,17.46
             25.37,17.46 25.04,17.70 24.74,17.44
             24.74,17.44 24.50,16.89 24.72,16.63
             24.72,16.63 25.06,16.46 25.31,16.61
             25.31,16.61 25.40,10.03 25.40,10.03
             25.40,10.03 25.39,9.19 23.82,9.46
             23.82,9.46 26.56,6.66 26.68,5.58
             26.68,5.58 29.49,6.75 29.01,9.49
             29.01,9.49 28.69,15.20 29.38,15.91
             29.38,15.91 29.71,16.00 29.78,16.31
             29.78,16.31 28.90,16.80 29.26,17.54
             29.26,17.54 29.34,23.84 29.34,23.84
             29.34,23.84 30.06,24.54 30.66,23.88
             30.66,23.88 34.41,19.84 33.60,11.53
             33.60,11.53 33.22,8.81 29.74,8.97
             29.74,8.97 32.89,6.49 32.72,5.26
             32.72,5.26 34.67,6.75 34.93,12.12
             35.37,22.95 29.14,28.34 27.94,28.14
             27.94,28.14 26.31,27.12 26.07,25.69
             26.07,25.69 24.63,27.34 21.65,28.25
             21.65,28.25 17.54,27.13 17.10,22.17
             17.06,22.22 17.13,17.72 17.13,17.72
             17.13,17.72 17.22,15.79 16.43,17.54
             16.43,17.54 16.12,16.22 17.10,15.39
             17.10,15.39 17.06,10.23 17.06,10.23
             16.88,9.29 15.75,9.34 15.75,9.34 Z" />
</svg>
