<?xml version="1.0" encoding="UTF-8" standalone="no"?>
<!DOCTYPE svg PUBLIC "-//W3C//DTD SVG 20010904//EN"
              "http://www.w3.org/TR/2001/REC-SVG-20010904/DTD/svg10.dtd">

<svg xmlns="http://www.w3.org/2000/svg"
     width="0.694444in" height="0.486111in"
     viewBox="0 0 50 35">
  <path id="R"
        fill="#fff" stroke="0" stroke-width="0"
        d="M 6.37,10.00
           C 6.37,10.00 6.47,9.45 6.47,9.45
             6.47,9.45 10.52,5.45 10.51,5.45
             10.51,5.45 16.55,9.14 12.39,14.50
             12.39,14.50 11.82,14.86 12.35,15.35
             12.35,15.35 13.96,15.83 13.68,16.57
             13.68,16.57 13.68,32.07 13.68,32.07
             13.68,32.07 13.87,33.42 15.40,34.33
             15.40,34.33 10.99,34.57 10.26,29.88
             10.26,29.88 10.26,16.57 10.26,16.57
             10.26,16.57 9.97,15.29 8.31,14.87
             8.31,14.87 9.49,14.64 9.89,14.24
             9.89,14.24 11.42,11.22 9.67,9.05
             9.67,9.05 7.81,9.03 6.84,10.05
             6.85,10.05 6.37,10.00 6.37,10.00 Z
           M 5.99,5.42
           C 5.99,5.42 2.51,6.98 1.98,10.06
             1.98,10.06 2.25,16.04 2.25,16.04
             2.25,16.04 2.24,16.05 2.23,16.07
             0.79,16.39 1.25,18.25 0.91,18.36
             0.91,18.36 0.92,18.36 0.93,18.35
             1.09,18.23 1.64,16.96 2.14,17.50
             2.14,17.50 2.41,24.30 2.35,24.40
             3.79,28.81 8.72,28.31 9.84,24.83
             7.08,25.65 5.99,22.89 5.99,22.89
             5.99,22.89 5.83,17.55 5.83,17.55
             5.83,17.55 6.78,17.61 7.33,18.42
             7.33,18.42 7.39,17.18 6.84,16.53
             6.84,16.53 6.78,16.37 6.13,16.32
             6.11,16.32 6.10,16.31 6.10,16.31
             6.10,16.31 5.99,5.42 5.99,5.42 Z" />
</svg>
